<svg xmlns="http://www.w3.org/2000/svg" width="1200" height="860" viewBox="0 0 1200 860">
<rect width="1200" height="860" fill="#0b0d10"/>
<style>text{font-family:Inter,system-ui,-apple-system,sans-serif}.mono{font-family:ui-monospace,SFMono-Regular,monospace}</style>
<text x="54" y="42" fill="#77d98b" font-size="12" font-weight="750" text-anchor="start">BARBELL BENCH + INCLINE DUMBBELL PRESS</text>
<text x="54" y="82" fill="#eef2f6" font-size="30" font-weight="750" text-anchor="start">Pressing strength is flat across the observed period.</text>
<text x="54" y="110" fill="#929daa" font-size="14" font-weight="400" text-anchor="start">Normalized independently by movement · June 20 outlier removed · 65 working sets</text>
<rect x="54" y="132" width="264" height="92" rx="12" fill="#12161b" stroke="#29313b"/>
<text x="70" y="156" fill="#929daa" font-size="10" font-weight="700" text-anchor="start">CURRENT</text>
<text x="70" y="191" fill="#eef2f6" font-size="25" font-weight="750" text-anchor="start">101.5</text>
<text x="70" y="211" fill="#929daa" font-size="11" font-weight="400" text-anchor="start">+1.5% vs baseline</text>
<rect x="332" y="132" width="264" height="92" rx="12" fill="#12161b" stroke="#29313b"/>
<text x="348" y="156" fill="#929daa" font-size="10" font-weight="700" text-anchor="start">PEAK GAP</text>
<text x="348" y="191" fill="#eef2f6" font-size="25" font-weight="750" text-anchor="start">−1.1%</text>
<text x="348" y="211" fill="#929daa" font-size="11" font-weight="400" text-anchor="start">combined capacity</text>
<rect x="610" y="132" width="264" height="92" rx="12" fill="#12161b" stroke="#29313b"/>
<text x="626" y="156" fill="#929daa" font-size="10" font-weight="700" text-anchor="start">INTERVAL</text>
<text x="626" y="191" fill="#eef2f6" font-size="25" font-weight="750" text-anchor="start">ρ .14</text>
<text x="626" y="211" fill="#929daa" font-size="11" font-weight="400" text-anchor="start">permutation p = .72</text>
<rect x="888" y="132" width="264" height="92" rx="12" fill="#12161b" stroke="#29313b"/>
<text x="904" y="156" fill="#929daa" font-size="10" font-weight="700" text-anchor="start">DOSE</text>
<text x="904" y="191" fill="#eef2f6" font-size="25" font-weight="750" text-anchor="start">65</text>
<text x="904" y="211" fill="#929daa" font-size="11" font-weight="400" text-anchor="start">31 bench + 34 incline</text>
<text x="54" y="260" fill="#eef2f6" font-size="15" font-weight="750" text-anchor="start">PRESSING CAPACITY OVER TIME</text>
<line x1="62" y1="484.5" x2="1142" y2="484.5" stroke="#29313b"/>
<text x="52" y="488.46428571428567" fill="#929daa" font-size="11" font-weight="400" text-anchor="end">85</text>
<line x1="62" y1="438.9" x2="1142" y2="438.9" stroke="#29313b"/>
<text x="52" y="442.92857142857144" fill="#929daa" font-size="11" font-weight="400" text-anchor="end">90</text>
<line x1="62" y1="393.4" x2="1142" y2="393.4" stroke="#29313b"/>
<text x="52" y="397.39285714285717" fill="#929daa" font-size="11" font-weight="400" text-anchor="end">95</text>
<line x1="62" y1="347.9" x2="1142" y2="347.9" stroke="#29313b" stroke-dasharray="5 5"/>
<text x="52" y="351.85714285714283" fill="#929daa" font-size="11" font-weight="400" text-anchor="end">100</text>
<line x1="62" y1="302.3" x2="1142" y2="302.3" stroke="#29313b"/>
<text x="52" y="306.32142857142856" fill="#929daa" font-size="11" font-weight="400" text-anchor="end">105</text>
<line x1="62.0" y1="275" x2="62.0" y2="530" stroke="#202832"/>
<text x="62.0" y="555" fill="#929daa" font-size="11" font-weight="400" text-anchor="middle">Mar 14</text>
<line x1="229.6" y1="275" x2="229.6" y2="530" stroke="#202832"/>
<text x="229.58620689655172" y="555" fill="#929daa" font-size="11" font-weight="400" text-anchor="middle">Apr 1</text>
<line x1="508.9" y1="275" x2="508.9" y2="530" stroke="#202832"/>
<text x="508.8965517241379" y="555" fill="#929daa" font-size="11" font-weight="400" text-anchor="middle">May 1</text>
<line x1="797.5" y1="275" x2="797.5" y2="530" stroke="#202832"/>
<text x="797.5172413793103" y="555" fill="#929daa" font-size="11" font-weight="400" text-anchor="middle">Jun 1</text>
<line x1="1076.8" y1="275" x2="1076.8" y2="530" stroke="#202832"/>
<text x="1076.8275862068967" y="555" fill="#929daa" font-size="11" font-weight="400" text-anchor="middle">Jul 1</text>
<polyline points="62.0,347.9 155.1,360.6 257.5,299.6 332.0,293.2 453.0,297.8 657.9,336.9 778.9,335.1 918.6,319.6 1039.6,396.1 1142.0,335.1" fill="none" stroke="#f0a84b" stroke-width="3" stroke-linejoin="round" stroke-linecap="round"/>
<circle cx="62.0" cy="347.9" r="4" fill="#f0a84b" stroke="#12161b" stroke-width="2"/>
<circle cx="155.1" cy="360.6" r="4" fill="#f0a84b" stroke="#12161b" stroke-width="2"/>
<circle cx="257.5" cy="299.6" r="4" fill="#f0a84b" stroke="#12161b" stroke-width="2"/>
<circle cx="332.0" cy="293.2" r="4" fill="#f0a84b" stroke="#12161b" stroke-width="2"/>
<circle cx="453.0" cy="297.8" r="4" fill="#f0a84b" stroke="#12161b" stroke-width="2"/>
<circle cx="657.9" cy="336.9" r="4" fill="#f0a84b" stroke="#12161b" stroke-width="2"/>
<circle cx="778.9" cy="335.1" r="4" fill="#f0a84b" stroke="#12161b" stroke-width="2"/>
<circle cx="918.6" cy="319.6" r="4" fill="#f0a84b" stroke="#12161b" stroke-width="2"/>
<circle cx="1039.6" cy="396.1" r="4" fill="#f0a84b" stroke="#12161b" stroke-width="2"/>
<circle cx="1142.0" cy="335.1" r="4" fill="#f0a84b" stroke="#12161b" stroke-width="2"/>
<polyline points="62.0,345.1 155.1,426.2 257.5,347.9 332.0,390.7 453.0,364.2 657.9,404.3 778.9,413.4 918.6,361.5 1039.6,296.9 1142.0,333.3" fill="none" stroke="#58a6ff" stroke-width="3" stroke-linejoin="round" stroke-linecap="round"/>
<circle cx="62.0" cy="345.1" r="4" fill="#58a6ff" stroke="#12161b" stroke-width="2"/>
<circle cx="155.1" cy="426.2" r="4" fill="#58a6ff" stroke="#12161b" stroke-width="2"/>
<circle cx="257.5" cy="347.9" r="4" fill="#58a6ff" stroke="#12161b" stroke-width="2"/>
<circle cx="332.0" cy="390.7" r="4" fill="#58a6ff" stroke="#12161b" stroke-width="2"/>
<circle cx="453.0" cy="364.2" r="4" fill="#58a6ff" stroke="#12161b" stroke-width="2"/>
<circle cx="657.9" cy="404.3" r="4" fill="#58a6ff" stroke="#12161b" stroke-width="2"/>
<circle cx="778.9" cy="413.4" r="4" fill="#58a6ff" stroke="#12161b" stroke-width="2"/>
<circle cx="918.6" cy="361.5" r="4" fill="#58a6ff" stroke="#12161b" stroke-width="2"/>
<circle cx="1039.6" cy="296.9" r="4" fill="#58a6ff" stroke="#12161b" stroke-width="2"/>
<circle cx="1142.0" cy="333.3" r="4" fill="#58a6ff" stroke="#12161b" stroke-width="2"/>
<polyline points="62.0,346.9 155.1,394.3 257.5,324.2 332.0,343.3 453.0,331.5 657.9,371.5 778.9,375.2 918.6,340.6 1039.6,347.9 1142.0,334.2" fill="none" stroke="#77d98b" stroke-width="3" stroke-linejoin="round" stroke-linecap="round"/>
<circle cx="62.0" cy="346.9" r="5" fill="#77d98b" stroke="#12161b" stroke-width="2"/>
<circle cx="155.1" cy="394.3" r="5" fill="#77d98b" stroke="#12161b" stroke-width="2"/>
<circle cx="257.5" cy="324.2" r="5" fill="#77d98b" stroke="#12161b" stroke-width="2"/>
<circle cx="332.0" cy="343.3" r="5" fill="#77d98b" stroke="#12161b" stroke-width="2"/>
<circle cx="453.0" cy="331.5" r="5" fill="#77d98b" stroke="#12161b" stroke-width="2"/>
<circle cx="657.9" cy="371.5" r="5" fill="#77d98b" stroke="#12161b" stroke-width="2"/>
<circle cx="778.9" cy="375.2" r="5" fill="#77d98b" stroke="#12161b" stroke-width="2"/>
<circle cx="918.6" cy="340.6" r="5" fill="#77d98b" stroke="#12161b" stroke-width="2"/>
<circle cx="1039.6" cy="347.9" r="5" fill="#77d98b" stroke="#12161b" stroke-width="2"/>
<circle cx="1142.0" cy="334.2" r="5" fill="#77d98b" stroke="#12161b" stroke-width="2"/>
<line x1="760" y1="255" x2="780" y2="255" stroke="#f0a84b" stroke-width="3"/>
<text x="787" y="259" fill="#929daa" font-size="11" font-weight="400" text-anchor="start">Bench</text>
<line x1="885" y1="255" x2="905" y2="255" stroke="#58a6ff" stroke-width="3"/>
<text x="912" y="259" fill="#929daa" font-size="11" font-weight="400" text-anchor="start">Incline DB</text>
<line x1="1010" y1="255" x2="1030" y2="255" stroke="#77d98b" stroke-width="3"/>
<text x="1037" y="259" fill="#929daa" font-size="11" font-weight="400" text-anchor="start">Combined</text>
<text x="54" y="588" fill="#eef2f6" font-size="15" font-weight="750" text-anchor="start">INTERVAL VS NEXT-SESSION RESPONSE</text>
<text x="1142" y="588" fill="#929daa" font-size="11" font-weight="400" text-anchor="end">color = prior hard-set share</text>
<line x1="62" y1="781.7" x2="1142" y2="781.7" stroke="#29313b"/>
<text x="52" y="785.6666666666667" fill="#929daa" font-size="11" font-weight="400" text-anchor="end">-10%</text>
<line x1="62" y1="747.3" x2="1142" y2="747.3" stroke="#29313b"/>
<text x="52" y="751.3333333333333" fill="#929daa" font-size="11" font-weight="400" text-anchor="end">-5%</text>
<line x1="62" y1="713.0" x2="1142" y2="713.0" stroke="#29313b" stroke-dasharray="5 5"/>
<text x="52" y="717.0" fill="#929daa" font-size="11" font-weight="400" text-anchor="end">+0%</text>
<line x1="62" y1="678.7" x2="1142" y2="678.7" stroke="#29313b"/>
<text x="52" y="682.6666666666666" fill="#929daa" font-size="11" font-weight="400" text-anchor="end">+5%</text>
<line x1="62" y1="644.3" x2="1142" y2="644.3" stroke="#29313b"/>
<text x="52" y="648.3333333333334" fill="#929daa" font-size="11" font-weight="400" text-anchor="end">+10%</text>
<line x1="122.0" y1="610" x2="122.0" y2="816" stroke="#202832"/>
<text x="122.0" y="841" fill="#929daa" font-size="11" font-weight="400" text-anchor="middle">6</text>
<line x1="242.0" y1="610" x2="242.0" y2="816" stroke="#202832"/>
<text x="242.0" y="841" fill="#929daa" font-size="11" font-weight="400" text-anchor="middle">8</text>
<line x1="362.0" y1="610" x2="362.0" y2="816" stroke="#202832"/>
<text x="362.0" y="841" fill="#929daa" font-size="11" font-weight="400" text-anchor="middle">10</text>
<line x1="482.0" y1="610" x2="482.0" y2="816" stroke="#202832"/>
<text x="482.0" y="841" fill="#929daa" font-size="11" font-weight="400" text-anchor="middle">12</text>
<line x1="602.0" y1="610" x2="602.0" y2="816" stroke="#202832"/>
<text x="602.0" y="841" fill="#929daa" font-size="11" font-weight="400" text-anchor="middle">14</text>
<line x1="722.0" y1="610" x2="722.0" y2="816" stroke="#202832"/>
<text x="722.0" y="841" fill="#929daa" font-size="11" font-weight="400" text-anchor="middle">16</text>
<line x1="842.0" y1="610" x2="842.0" y2="816" stroke="#202832"/>
<text x="842.0" y="841" fill="#929daa" font-size="11" font-weight="400" text-anchor="middle">18</text>
<line x1="962.0" y1="610" x2="962.0" y2="816" stroke="#202832"/>
<text x="962.0" y="841" fill="#929daa" font-size="11" font-weight="400" text-anchor="middle">20</text>
<line x1="1082.0" y1="610" x2="1082.0" y2="816" stroke="#202832"/>
<text x="1082.0" y="841" fill="#929daa" font-size="11" font-weight="400" text-anchor="middle">22</text>
<text x="602.0" y="850" fill="#929daa" font-size="11" font-weight="400" text-anchor="middle">Days since prior shared pressing session</text>
<circle cx="362.0" cy="748.7" r="7" fill="rgb(241, 145, 104)" stroke="#12161b" stroke-width="2"/>
<circle cx="422.0" cy="657.3" r="7" fill="rgb(243, 173, 103)" stroke="#12161b" stroke-width="2"/>
<circle cx="242.0" cy="727.1" r="7" fill="rgb(241, 145, 104)" stroke="#12161b" stroke-width="2"/>
<circle cx="542.0" cy="704.1" r="7" fill="rgb(244, 185, 103)" stroke="#12161b" stroke-width="2"/>
<circle cx="1082.0" cy="742.7" r="7" fill="rgb(243, 173, 103)" stroke="#12161b" stroke-width="2"/>
<circle cx="542.0" cy="715.8" r="7" fill="rgb(242, 161, 104)" stroke="#12161b" stroke-width="2"/>
<circle cx="662.0" cy="686.1" r="7" fill="rgb(243, 173, 103)" stroke="#12161b" stroke-width="2"/>
<circle cx="542.0" cy="718.4" r="7" fill="rgb(241, 145, 104)" stroke="#12161b" stroke-width="2"/>
<circle cx="422.0" cy="702.7" r="7" fill="rgb(245, 201, 102)" stroke="#12161b" stroke-width="2"/>
</svg>